<?xml version="1.0" standalone="no"?>
<!DOCTYPE svg PUBLIC "-//W3C//DTD SVG 20010904//EN"
 "http://www.w3.org/TR/2001/REC-SVG-20010904/DTD/svg10.dtd">
<svg version="1.0" xmlns="http://www.w3.org/2000/svg"
 width="700.000000pt" height="700.000000pt" viewBox="0 0 700.000000 700.000000"
 preserveAspectRatio="xMidYMid meet">
<metadata>
Created by potrace 1.14, written by Peter Selinger 2001-2017
</metadata>
<g transform="translate(0.000000,700.000000) scale(0.100000,-0.100000)"
fill="#000000" stroke="none">
<path d="M1157 6460 c-90 -23 -171 -80 -223 -157 -54 -81 -65 -124 -68 -261
-2 -68 -7 -127 -12 -131 -5 -4 -31 -13 -59 -20 -128 -31 -243 -142 -288 -276
-5 -16 -13 -99 -16 -184 l-6 -155 -90 -2 c-177 -4 -289 -73 -361 -220 -25 -52
-28 -70 -28 -154 0 -83 4 -102 28 -153 33 -68 106 -146 167 -178 24 -12 70
-28 102 -34 l59 -10 0 -1412 c0 -777 -3 -1417 -7 -1423 -3 -5 -14 -10 -23 -10
-24 0 -95 -39 -136 -77 -42 -37 -83 -114 -94 -175 -9 -54 -8 -700 2 -751 8
-45 55 -101 107 -128 37 -19 94 -19 3259 -19 2887 0 3224 2 3258 15 48 20 79
50 105 100 19 38 20 55 19 415 0 313 -3 382 -16 418 -28 78 -90 148 -158 180
-36 17 -38 19 -38 72 -1 30 -1 671 -2 1424 l0 1370 60 12 c205 42 334 236 292
439 -15 75 -37 117 -88 176 -43 48 -133 102 -192 114 -19 4 -71 9 -115 10 -71
1 -80 3 -82 21 -1 10 -4 82 -6 159 -3 126 -6 146 -31 199 -60 134 -165 217
-316 250 -26 5 -26 6 -25 103 2 177 -25 259 -112 347 -89 91 -185 121 -357
113 -159 -7 -258 -53 -329 -153 -58 -82 -70 -126 -75 -271 l-4 -133 -252 0
-252 0 -58 183 c-75 235 -101 278 -195 320 -45 20 -61 21 -985 21 -642 1 -953
-2 -982 -10 -58 -15 -106 -49 -142 -103 -30 -45 -43 -79 -112 -303 l-34 -108
-253 0 -253 0 -1 103 c-1 135 -3 148 -24 204 -39 102 -122 187 -225 228 -52
21 -270 30 -333 15z m3287 -257 c7 -16 30 -81 50 -146 20 -65 39 -124 43 -132
4 -13 -128 -15 -1036 -15 -573 0 -1041 2 -1041 3 0 11 89 277 99 295 l12 22
929 0 929 0 15 -27z"/>
</g>
</svg>
